HIERARCHY
ROOT hip
{
  OFFSET 0 0 0
  CHANNELS 6 Xposition Yposition Zposition Zrotation Yrotation Xrotation
  JOINT abdomen
  {
    OFFSET 0 20.6881 -0.73152
    CHANNELS 3 Zrotation Xrotation Yrotation
    JOINT chest
    {
      OFFSET 0 11.7043 -0.48768
      CHANNELS 3 Zrotation Xrotation Yrotation
      JOINT neck
      {
        OFFSET 0 22.1894 -2.19456
        CHANNELS 3 Zrotation Xrotation Yrotation
        JOINT head
        {
          OFFSET -0.24384 7.07133 1.2192
          CHANNELS 3 Zrotation Xrotation Yrotation
          JOINT leftEye
          {
            OFFSET 4.14528 8.04674 8.04672
            CHANNELS 3 Zrotation Xrotation Yrotation
            End Site
            {
              OFFSET 1 0 0
            }
          }
          JOINT rightEye
          {
            OFFSET -3.6576 8.04674 8.04672
            CHANNELS 3 Zrotation Xrotation Yrotation
            End Site
            {
              OFFSET 1 0 0
            }
          }
        }
      }
      JOINT rCollar
      {
        OFFSET -2.68224 19.2634 -4.8768
        CHANNELS 3 Zrotation Xrotation Yrotation
        JOINT rShldr
        {
          OFFSET -8.77824 -1.95073 1.46304
          CHANNELS 3 Zrotation Xrotation Yrotation
          JOINT rForeArm
          {
            OFFSET -28.1742 -1.7115 0.48768
            CHANNELS 3 Zrotation Xrotation Yrotation
            JOINT rHand
            {
              OFFSET -22.5879 0.773209 7.07136
              CHANNELS 3 Zrotation Xrotation Yrotation
              JOINT rThumb1
              {
                OFFSET -1.2192 -0.487915 3.41376
                CHANNELS 3 Zrotation Xrotation Yrotation
                JOINT rThumb2
                {
                  OFFSET -3.37035 -0.52449 3.41376
                  CHANNELS 3 Zrotation Xrotation Yrotation
                  End Site
                  {
                    OFFSET -1.78271 -1.18214 1.43049
                  }
                }
              }
              JOINT rIndex1
              {
                OFFSET -7.75947 0.938293 5.60832
                CHANNELS 3 Zrotation Xrotation Yrotation
                JOINT rIndex2
                {
                  OFFSET -2.54057 -0.884171 1.56538
                  CHANNELS 3 Zrotation Xrotation Yrotation
                  End Site
                  {
                    OFFSET -1.62519 -0.234802 1.16502
                  }
                }
              }
              JOINT rMid1
              {
                OFFSET -8.24714 1.18213 3.41376
                CHANNELS 3 Zrotation Xrotation Yrotation
                JOINT rMid2
                {
                  OFFSET -3.10165 -0.590103 1.0647
                  CHANNELS 3 Zrotation Xrotation Yrotation
                  End Site
                  {
                    OFFSET -2.48547 -0.328903 0.83742
                  }
                }
              }
              JOINT rRing1
              {
                OFFSET -8.82822 0.546677 1.51678
                CHANNELS 3 Zrotation Xrotation Yrotation
                JOINT rRing2
                {
                  OFFSET -2.60934 -0.819778 -0.0198488
                  CHANNELS 3 Zrotation Xrotation Yrotation
                  End Site
                  {
                    OFFSET -2.33842 -0.294052 0.168128
                  }
                }
              }
              JOINT rPinky1
              {
                OFFSET -8.27202 -0.0477905 -0.4584
                CHANNELS 3 Zrotation Xrotation Yrotation
                JOINT rPinky2
                {
                  OFFSET -1.82734 -0.647385 -0.700984
                  CHANNELS 3 Zrotation Xrotation Yrotation
                  End Site
                  {
                    OFFSET -1.69225 -0.51767 -0.607171
                  }
                }
              }
            }
          }
        }
      }
      JOINT lCollar
      {
        OFFSET 2.68224 19.2634 -4.8768
        CHANNELS 3 Zrotation Xrotation Yrotation
        JOINT lShldr
        {
          OFFSET 8.77824 -1.95073 1.46304
          CHANNELS 3 Zrotation Xrotation Yrotation
          JOINT lForeArm
          {
            OFFSET 28.1742 -1.7115 0.48768
            CHANNELS 3 Zrotation Xrotation Yrotation
            JOINT lHand
            {
              OFFSET 22.5879 0.773209 7.07136
              CHANNELS 3 Zrotation Xrotation Yrotation
              JOINT lThumb1
              {
                OFFSET 1.2192 -0.487915 3.41376
                CHANNELS 3 Zrotation Xrotation Yrotation
                JOINT lThumb2
                {
                  OFFSET 3.37035 -0.52449 3.41376
                  CHANNELS 3 Zrotation Xrotation Yrotation
                  End Site
                  {
                    OFFSET 1.78271 -1.18214 1.43049
                  }
                }
              }
              JOINT lIndex1
              {
                OFFSET 7.75947 0.938293 5.60832
                CHANNELS 3 Zrotation Xrotation Yrotation
                JOINT lIndex2
                {
                  OFFSET 2.54057 -0.884171 1.56538
                  CHANNELS 3 Zrotation Xrotation Yrotation
                  End Site
                  {
                    OFFSET 1.62519 -0.234802 1.16502
                  }
                }
              }
              JOINT lMid1
              {
                OFFSET 8.24714 1.18213 3.41376
                CHANNELS 3 Zrotation Xrotation Yrotation
                JOINT lMid2
                {
                  OFFSET 3.10165 -0.590103 1.0647
                  CHANNELS 3 Zrotation Xrotation Yrotation
                  End Site
                  {
                    OFFSET 2.48547 -0.328903 0.83742
                  }
                }
              }
              JOINT lRing1
              {
                OFFSET 8.82822 0.546677 1.51678
                CHANNELS 3 Zrotation Xrotation Yrotation
                JOINT lRing2
                {
                  OFFSET 2.60934 -0.819778 -0.0198488
                  CHANNELS 3 Zrotation Xrotation Yrotation
                  End Site
                  {
                    OFFSET 2.33842 -0.294052 0.168128
                  }
                }
              }
              JOINT lPinky1
              {
                OFFSET 8.27202 -0.0477905 -0.4584
                CHANNELS 3 Zrotation Xrotation Yrotation
                JOINT lPinky2
                {
                  OFFSET 1.82734 -0.647385 -0.700984
                  CHANNELS 3 Zrotation Xrotation Yrotation
                  End Site
                  {
                    OFFSET 1.69225 -0.51767 -0.607171
                  }
                }
              }
            }
          }
        }
      }
    }
  }
  JOINT rButtock
  {
    OFFSET -8.77824 4.35084 1.2192
    CHANNELS 3 Zrotation Xrotation Yrotation
    JOINT rThigh
    {
      OFFSET 0 -1.70687 -2.19456
      CHANNELS 3 Zrotation Xrotation Yrotation
      JOINT rShin
      {
        OFFSET 0 -36.8199 0.73152
        CHANNELS 3 Zrotation Xrotation Yrotation
        JOINT rFoot
        {
          OFFSET 0.73152 -45.1104 -5.12064
          CHANNELS 3 Zrotation Xrotation Yrotation
          End Site
          {
            OFFSET -1.1221 -3.69964 12.103
          }
        }
      }
    }
  }
  JOINT lButtock
  {
    OFFSET 8.77824 4.35084 1.2192
    CHANNELS 3 Zrotation Xrotation Yrotation
    JOINT lThigh
    {
      OFFSET 0 -1.70687 -2.19456
      CHANNELS 3 Zrotation Xrotation Yrotation
      JOINT lShin
      {
        OFFSET 0 -36.8199 0.73152
        CHANNELS 3 Zrotation Xrotation Yrotation
        JOINT lFoot
        {
          OFFSET -0.73152 -45.1104 -5.12064
          CHANNELS 3 Zrotation Xrotation Yrotation
          End Site
          {
            OFFSET 1.1221 -3.69964 12.103
          }
        }
      }
    }
  }
}
MOTION
Frames:	4
Frame Time:	0.03333
56.3182 90.1801 7.9308000000000005 -1.583569 48.126153 -3.504217 -22.712505 55.702068 -0.0 -150.513502 -42.973335 -143.495645 -119.53254 -36.575199 -3.028674 -112.990971 75.560993 -55.889654 -55.00297 19.105924 -35.828657 -32.743567 21.720122 -66.291224 -175.901951 45.997906 -89.716843 -112.190672 35.899523 110.484588 25.330467 39.94165 -145.520117 137.672474 -22.443471 137.826364 -179.086511 -51.020264 64.081339 -90.623942 18.666243 42.248686 -158.195977 -65.041332 69.559169 -175.705989 -0.511792 114.754379 42.333063 53.349341 30.716136 11.245158 -67.386065 13.635935 -65.912692 -46.096385 -100.500488 -34.681307 -19.971161 -109.31242 -92.188152 -39.163182 -143.149238 106.216686 57.071377 -89.536705 33.016809 -10.480275 29.979272 128.06965 7.227045 167.312693 -109.026346 86.031979 -103.782603 -43.871938 49.681384 140.536159 42.380212 37.215221 14.808594 -14.268575 49.709978 -3.926356 169.618017 38.389049 -175.580235 -94.886521 29.299989 128.431138 -81.804034 81.904975 97.556091 -0.113282 -38.541413 5.689634 68.257219 -54.569282 -40.817192 -122.731346 -20.157126 68.871021 -3.145446 -2.039595 13.757711 11.564294 -5.577135 5.273977 52.509883 55.559744 51.588328 -85.989576 -30.66499 -171.709179 -69.372573 -10.946596 -173.995525 100.500391 77.712861 99.881728 138.309891 66.925496 44.071715 172.360693 17.208402 67.739699 70.037864 27.048965 -16.401187 63.043071 -61.903636 22.135324
60.305699999999995 81.8858 9.2152 0.930478 39.762647 -2.138778 -19.513859 41.175095 -151.706801 120.863145 31.522066 80.188723 -125.209551 -26.441374 -61.009926 -84.544646 28.097203 -66.694291 -46.018718 28.403781 -61.584333 -30.428518 23.486794 -74.786705 -44.753308 0.059509 -137.148516 167.917352 15.766913 -179.444987 -9.176101 59.296653 120.270963 22.068395 30.470643 -22.587967 -111.834784 -17.292149 120.568313 -87.829156 17.885122 53.669855 -75.063273 -7.570459 138.567017 -162.385704 5.550862 98.201385 80.109829 70.690834 -21.68902 -62.878692 42.407846 34.068609 7.989748 13.791559 -0.153955 -109.22163 -77.846101 151.95093 -108.042387 -0.929464 -150.965674 178.025994 77.762293 -178.802569 31.241052 -0.140169 29.992054 129.985785 0.179298 -178.45039 -126.96565 -74.908319 119.025181 -108.245175 -37.183896 3.331289 174.335813 46.232254 -103.393211 -108.949868 -34.108139 -15.1809 145.583169 -13.487987 168.753194 165.389712 53.108228 138.714602 -2.197186 63.922561 36.03528 159.419918 -24.458164 -141.285467 -91.973346 -3.908265 -151.880307 103.283218 -30.636778 -14.249889 171.031244 30.827127 120.392516 -12.723388 -5.029678 -4.157638 -13.903267 2.400734 19.133995 46.335573 -46.004046 105.30138 64.445609 -10.727816 -74.174188 -137.337977 66.256683 -7.477093 8.244608 2.826449 -11.132652 -22.367517 -52.050609 -27.557812 -59.519432 65.817695 -127.886055 -82.147108 -21.724465 -123.741101
63.3058 72.16329999999999 10.4919 3.01298 32.522179 -1.942154 -19.481094 33.900483 10.473578 -111.696986 -49.630331 -95.642576 -105.85585 -15.336746 139.555285 75.956552 -49.773109 91.460076 -131.795472 -27.950054 -58.173142 -30.391783 22.8982 -73.419053 177.16004 56.616184 -80.200025 58.314543 -44.138987 43.07475 -55.369145 -32.386977 125.238639 166.02812 -53.669614 113.395874 -17.215982 -19.445157 -99.938295 4.095241 -5.597621 2.746559 -57.907905 -7.684617 -134.434731 -7.240884 -6.793089 -0.479678 2.003478 5.594547 -87.521141 -157.203484 -15.430906 117.914023 82.625242 80.326602 -66.233433 -92.245624 -2.674983 166.083063 6.173933 4.782691 -21.929772 148.285013 38.438119 -86.86101 102.647267 -53.840966 94.380577 155.919317 -9.58472 161.812697 -99.910797 65.531933 -114.29322 -41.049333 27.814061 120.825943 12.41886 -52.887473 32.674707 145.759513 -41.288374 -178.239095 -30.460446 61.856786 58.997552 -162.316496 47.03389 -86.417004 11.505623 19.000694 25.226552 -17.165911 60.006032 -0.58443 96.384196 3.701004 1.97616 52.206702 -13.570933 152.313238 116.008883 -10.055262 101.241678 4.917656 -48.06461 8.351032 -128.558229 55.685358 -56.64048 -163.798475 22.420873 142.699875 22.131346 -69.059775 161.463896 179.274477 37.340904 25.856082 -153.573315 72.230097 -0.0 146.287927 17.342569 -90.962298 -66.016145 -37.960512 -10.96049 87.196308 17.365729 123.019061
65.7713 65.1945 11.3678 3.630801 29.768821 -2.97962 -13.442428 25.586502 -82.422379 86.923626 -35.940623 112.550324 -132.554395 -13.889551 -85.56915 -98.354687 17.997014 -57.051858 -114.769593 -28.079591 -42.689984 -35.888354 22.220264 -62.464604 90.806216 -0.38077 -43.061294 -137.572841 -26.117624 -171.882766 102.42621 -61.378885 -123.854151 -27.463247 -17.460324 -24.707919 -30.143631 32.452908 -75.11913 32.654397 6.800439 19.624431 -29.030663 27.030172 -103.942041 -97.48125 52.203312 61.265487 153.602586 -9.961723 -138.834793 -39.04192 -18.675461 -51.170037 -178.248107 7.047447 -131.129519 -69.18483 42.54355 101.013542 -153.746298 -4.443264 -99.606269 19.68483 -50.486402 29.37776 -170.13734 36.256542 172.401371 53.677247 63.285446 -41.23189 -169.96584 12.41033 84.374445 -51.425263 28.904507 24.210779 69.994967 54.542091 -48.625086 22.782597 -22.216391 -76.678068 76.563982 -67.674177 -173.793535 -18.790314 38.734639 6.788231 117.19745 -11.814676 -150.283084 8.66369 -37.459664 -12.966741 -34.065924 -0.278775 0.934614 -138.364014 14.692286 148.818809 -46.046373 -33.247516 14.509338 21.104123 -51.064664 -5.538294 -14.514214 2.003709 19.947298 44.18549 -46.131703 -126.565405 -76.383552 -44.938255 4.656694 -139.717717 19.24007 -31.090076 9.522217 6.761139 -13.49566 -17.438394 -49.138434 -13.591309 -25.435448 65.077785 125.073987 70.423736 -60.842592 15.308079
